<?xml version="1.0" encoding="utf-8"?>
<!-- Generator: Adobe Illustrator 19.0.0, SVG Export Plug-In . SVG Version: 6.00 Build 0)  -->
<svg version="1.1" id="Layer_1" xmlns="http://www.w3.org/2000/svg" xmlns:xlink="http://www.w3.org/1999/xlink" x="0px" y="0px"
	 viewBox="0 0 36 36" style="enable-background:new 0 0 36 36;" xml:space="preserve">
<style type="text/css">
	.st0{fill:#3C66A7;}
</style>
<path id="XMLID_6_" class="st0" d="M33,1H3C1.9,1,1,1.9,1,3v30c0,1.1,0.9,2,2,2h30c1.1,0,2-0.9,2-2V3C35,1.9,34.1,1,33,1z M24.2,9.2
	h-3c-0.5,0-1.2,0.2-1.2,1.3v2.8h4.1L23.7,18H20v13.4h-5.6V18h-2.6v-4.7h2.6v-3.1c0-2.2,1-5.6,5.6-5.6l4.1,0V9.2z"/>
</svg>
