<?xml version="1.0" encoding="utf-8"?>
<!-- Generator: Adobe Illustrator 19.0.0, SVG Export Plug-In . SVG Version: 6.00 Build 0)  -->
<svg version="1.1" id="Layer_1" xmlns="http://www.w3.org/2000/svg" xmlns:xlink="http://www.w3.org/1999/xlink" x="0px" y="0px"
	 viewBox="0 0 36 36" style="enable-background:new 0 0 36 36;" xml:space="preserve">
<style type="text/css">
	.st0{fill:#90939C;}
	.st1{fill:#F8E494;}
	.st2{fill:#F7A150;}
	.st3{fill:#F65C4A;}
	.st4{fill:#E35261;}
	.st5{fill:#F34C94;}
	.st6{fill:#CB3093;}
	.st7{fill:#8A3290;}
	.st8{fill:#513490;}
	.st9{fill:#2C2D86;}
</style>
<path id="XMLID_3_" class="st0" d="M35,33c0,1.1-0.9,2-2,2H3c-1.1,0-2-0.9-2-2V3c0-1.1,0.9-2,2-2h30c1.1,0,2,0.9,2,2V33z"/>
<path id="XMLID_21_" class="st1" d="M12.5,28h2.4l-3.8-2.4L8,23.8C8.1,26.1,10.1,28,12.5,28z"/>
<path id="XMLID_20_" class="st2" d="M21.1,26.6l-2.7-0.7h-5.9c-1.3,0-2.4-1.1-2.4-2.4v-1.3l-1-1.1l-1,0.2v2.3c0,0.1,0,0.2,0,0.3
	l6.9,4.2H23L21.1,26.6z"/>
<path id="XMLID_19_" class="st3" d="M25.3,25.2c-0.4,0.5-1.1,0.7-1.7,0.7h-5.1L23,28h0.5c1.6,0,3-0.9,3.8-2.1l-1.1-0.6L25.3,25.2z"
	/>
<path id="XMLID_18_" class="st4" d="M25.9,20.7v2.8c0,0.7-0.3,1.2-0.7,1.7l2.1,0.7c0.4-0.7,0.7-1.5,0.7-2.4v-2.5l-1.1-0.6L25.9,20.7
	z"/>
<polygon id="XMLID_17_" class="st5" points="28,13.8 26.9,13.6 25.9,14.1 25.9,20.7 28,21.1 "/>
<path id="XMLID_16_" class="st6" d="M28,12.5c0-2.3-1.7-4.1-3.8-4.4l-2.7,1.1l-1.4,0.9h3.4c1.3,0,2.4,1.1,2.4,2.4v1.7l2.1-0.3V12.5z
	"/>
<path id="XMLID_15_" class="st7" d="M20.4,8l-2.6,1l-2,1.1h4.3l4.1-2c-0.2,0-0.4,0-0.6,0H20.4z"/>
<path id="XMLID_14_" class="st3" d="M18,23.9c0.7,0,1.4-0.1,2-0.4L16.7,22l-3.6-0.7C14.2,22.8,16,23.9,18,23.9z"/>
<path id="XMLID_13_" class="st4" d="M20.9,19.9c-0.6,0.9-1.7,1.5-2.9,1.5c-1.6,0-2.9-1.1-3.3-2.5l-0.9-0.6l-1.6,0.2
	c0.1,1,0.4,1.9,1,2.7l6.9,2.3c1.5-0.6,2.7-1.7,3.3-3.2l-1.2-0.6L20.9,19.9z"/>
<g id="XMLID_33_">
	<path id="XMLID_12_" class="st5" d="M14.6,18c0-0.9,0.3-1.6,0.8-2.2l-1.5-0.2l-1.5,0.7c-0.2,0.6-0.3,1.2-0.3,1.8c0,0.2,0,0.4,0,0.5
		l2.5,0.4C14.6,18.6,14.6,18.3,14.6,18z"/>
	<path id="XMLID_11_" class="st5" d="M23.9,18c0-1.3-0.4-2.4-1.1-3.4l-1.5-0.2l-1.5,0.7c1,0.6,1.6,1.7,1.6,2.9
		c0,0.7-0.2,1.4-0.6,1.9l2.5,0.4C23.7,19.6,23.9,18.8,23.9,18z"/>
</g>
<g id="XMLID_30_">
	<path id="XMLID_10_" class="st6" d="M18,14.6c0.7,0,1.3,0.2,1.8,0.5l3-0.5c-1.1-1.5-2.8-2.5-4.8-2.5c-2.6,0-4.8,1.7-5.6,4.1l3-0.5
		C16,15,17,14.6,18,14.6z"/>
	<path id="XMLID_9_" class="st6" d="M23.5,13.9c0.8,0,1.4-0.6,1.4-1.4c0-0.8-0.6-1.4-1.4-1.4c-0.8,0-1.4,0.6-1.4,1.4
		C22.1,13.2,22.8,13.9,23.5,13.9z"/>
</g>
<polygon id="XMLID_8_" class="st3" points="10.1,20.2 9.1,19.8 8,19.6 8,21.3 10.1,22.2 "/>
<polygon id="XMLID_7_" class="st4" points="8,17.9 8,19.6 10.1,20.2 10.1,18.2 9,17.8 "/>
<polygon id="XMLID_6_" class="st5" points="10.1,16.6 9,16.6 8,16.9 8,17.9 10.1,18.2 "/>
<polygon id="XMLID_5_" class="st6" points="10.1,15 9,15.1 8,16 8,16.9 10.1,16.6 "/>
<polygon id="XMLID_4_" class="st7" points="8,16 10.1,15 10.1,12.7 8.9,12.8 8,13.6 "/>
<path id="XMLID_2_" class="st8" d="M16,8l-4.7,1.8l-3.2,2C8,12,8,12.2,8,12.5v1.1l2.1-0.9v-0.2c0-1.3,1.1-2.4,2.4-2.4h3.3L20.4,8H16
	z"/>
<path id="XMLID_1_" class="st9" d="M12.5,8c-2.2,0-4.1,1.6-4.4,3.8L16,8H12.5z"/>
</svg>
