<?xml version="1.0" encoding="utf-8"?>
<!-- Generator: Adobe Illustrator 19.0.0, SVG Export Plug-In . SVG Version: 6.00 Build 0)  -->
<svg version="1.1" id="Layer_1" xmlns="http://www.w3.org/2000/svg" xmlns:xlink="http://www.w3.org/1999/xlink" x="0px" y="0px"
	 viewBox="0 0 36 36" style="enable-background:new 0 0 36 36;" xml:space="preserve">
<style type="text/css">
	.st0{fill:#7C818A;}
</style>
<g id="XMLID_22_">
	<path id="XMLID_23_" class="st0" d="M18,21.4c1.2,0,2.2-0.6,2.9-1.5c0.4-0.6,0.6-1.2,0.6-1.9c0-1.2-0.6-2.3-1.6-2.9
		c-0.5-0.3-1.2-0.5-1.8-0.5c-1,0-2,0.5-2.6,1.2l0,0h0c-0.5,0.6-0.8,1.4-0.8,2.2c0,0.3,0,0.6,0.1,0.9h0l0,0
		C15.1,20.4,16.4,21.4,18,21.4z"/>
	<path id="XMLID_26_" class="st0" d="M10.1,15v1.6v1.6v2v1.9v1.3c0,1.3,1.1,2.4,2.4,2.4h5.9h5.1c0.7,0,1.3-0.3,1.7-0.7h0
		c0.4-0.4,0.7-1,0.7-1.7v-2.8v-6.6v-1.7c0-1.3-1.1-2.4-2.4-2.4h-3.4h-4.3l0,0l0,0h-3.3c-1.3,0-2.4,1.1-2.4,2.4v0.2v0V15z M23.5,11.1
		c0.8,0,1.4,0.6,1.4,1.4c0,0.8-0.6,1.4-1.4,1.4s-1.4-0.6-1.4-1.4C22.1,11.7,22.8,11.1,23.5,11.1z M12.4,16.2L12.4,16.2L12.4,16.2
		c0.8-2.4,3-4.1,5.6-4.1c2,0,3.7,1,4.8,2.5c0.7,1,1.1,2.1,1.1,3.4c0,0.8-0.2,1.6-0.5,2.3c-0.6,1.5-1.8,2.6-3.3,3.2
		c-0.6,0.2-1.3,0.4-2,0.4c-2,0-3.8-1-4.9-2.6l0,0l0,0c-0.5-0.8-0.9-1.7-1-2.7h0l0,0c0-0.2,0-0.4,0-0.5
		C12.1,17.4,12.2,16.8,12.4,16.2z"/>
	<path id="XMLID_31_" class="st0" d="M33,1H3C1.9,1,1,1.9,1,3v30c0,1.1,0.9,2,2,2h30c1.1,0,2-0.9,2-2V3C35,1.9,34.1,1,33,1z
		 M28,13.8v7.2v2.5c0,0.9-0.2,1.7-0.7,2.4h0c-0.8,1.3-2.2,2.1-3.8,2.1H23h-8.2h-2.4c-2.4,0-4.3-1.9-4.5-4.2c0-0.1,0-0.2,0-0.3v-2.3
		v-1.7v-1.7v-1V16v-2.5v-1.1c0-0.2,0-0.5,0.1-0.7C8.4,9.6,10.2,8,12.5,8H16h4.4h3.1c0.2,0,0.4,0,0.6,0l0,0l0,0
		c2.2,0.3,3.8,2.2,3.8,4.4V13.8z"/>
</g>
</svg>
