<?xml version="1.0" encoding="UTF-8"?>
<svg width="132px" height="23px" viewBox="0 0 132 23" version="1.1" xmlns="http://www.w3.org/2000/svg" xmlns:xlink="http://www.w3.org/1999/xlink">
    <!-- Generator: Sketch 52.4 (67378) - http://www.bohemiancoding.com/sketch -->
    <title>Group 2</title>
    <desc>Created with Sketch.</desc>
    <g id="Page-1" stroke="none" stroke-width="1" fill="none" fill-rule="evenodd">
        <g id="Group-2" fill="#FFFFFF">
            <path d="M0.12,22.4102564 L5.52,22.4102564 L7.32,12.2666667 C7.56,10.9102564 7.74,8.55128205 7.74,8.55128205 L7.8,8.55128205 C7.8,8.55128205 8.4,10.8512821 9,12.2666667 L13.38,22.4102564 L18.84,22.4102564 L22.68,0.648717949 L17.28,0.648717949 L15.48,10.7923077 C15.24,12.1487179 15.06,14.5076923 15.06,14.5076923 L15,14.5076923 C15,14.5076923 14.4,12.2076923 13.8,10.7923077 L9.48,0.648717949 L4.02,0.648717949 L0.12,22.4102564 Z" id="Path"></path>
            <polygon id="Path" points="23.46 22.4102564 37.74 22.4102564 38.58 17.8692308 29.7 17.8692308 30.42 13.7410256 37.14 13.7410256 37.98 9.2 31.2 9.2 31.92 5.18974359 40.38 5.18974359 41.16 0.648717949 27.3 0.648717949"></polygon>
            <path d="M41.58,11.5 C40.32,18.6358974 44.76,22.7641026 50.46,22.7641026 C52.62,22.7641026 55.08,22.0564103 56.64,20.8769231 L56.7,20.8769231 C56.7,20.8769231 56.58,21.3487179 56.52,21.7615385 L56.4,22.3512821 L60.9,22.3512821 L63.06,10.0846154 L55.14,10.0846154 L54.36,14.625641 L57.48,14.625641 L57.18,16.2769231 C55.74,17.2794872 54,17.8692308 52.44,17.8692308 C49.02,17.8692308 46.56,15.3923077 47.28,11.2641026 C47.88,8.02051282 50.28,5.13076923 54.9,5.13076923 C56.76,5.13076923 58.86,6.01538462 59.94,7.13589744 L63.24,3.12564103 C61.26,1.06153846 58.26,0.235897436 55.26,0.235897436 C48.42,0.294871795 42.72,5.13076923 41.58,11.5" id="Path"></path>
            <polygon id="Path" points="64.74 22.4102564 79.02 22.4102564 79.86 17.8692308 70.98 17.8692308 71.7 13.7410256 78.42 13.7410256 79.26 9.2 72.48 9.2 73.2 5.18974359 81.66 5.18974359 82.44 0.648717949 68.58 0.648717949"></polygon>
            <polygon id="Path" points="82.02 22.4102564 87.06 22.4102564 87.96 17.3974359 82.92 17.3974359"></polygon>
            <polygon id="Path" points="91.2 22.4102564 96.66 22.4102564 98.22 13.5641026 100.44 13.5641026 103.56 22.4102564 109.62 22.4102564 105.3 11.1461538 105.3 11.0871795 113.16 0.648717949 107.34 0.648717949 101.22 9.02307692 99 9.02307692 100.5 0.648717949 95.1 0.648717949"></polygon>
            <path d="M110.94,22.4102564 L128.22,22.4102564 L129.06,17.8692308 L120.36,17.8692308 C119.34,17.8692308 118.62,17.9871795 118.62,17.9871795 L118.62,17.9282051 C118.62,17.9282051 119.46,17.2794872 120.66,15.9230769 L131.34,3.95128205 L131.94,0.648717949 L115.2,0.648717949 L114.36,5.18974359 L122.52,5.18974359 C123.54,5.18974359 124.26,5.07179487 124.26,5.07179487 L124.26,5.13076923 C124.26,5.13076923 123.42,5.77948718 122.22,7.13589744 L111.54,19.0487179 L110.94,22.4102564 Z" id="Path"></path>
        </g>
    </g>
</svg>