<?xml version="1.0" encoding="utf-8"?>
<!-- Generator: Adobe Illustrator 19.0.0, SVG Export Plug-In . SVG Version: 6.00 Build 0)  -->
<svg version="1.1" id="Layer_1" xmlns="http://www.w3.org/2000/svg" xmlns:xlink="http://www.w3.org/1999/xlink" x="0px" y="0px"
	 viewBox="0 0 36 36" style="enable-background:new 0 0 36 36;" xml:space="preserve">
<style type="text/css">
	.st0{fill:#90939C;}
</style>
<path id="XMLID_3_" class="st0" d="M-20.2-20.8c0,1.1-0.9,2-2,2h-30c-1.1,0-2-0.9-2-2v-30c0-1.1,0.9-2,2-2h30c1.1,0,2,0.9,2,2V-20.8
	z"/>
<g id="XMLID_2_">
	<path id="XMLID_7_" class="st0" d="M24.6,12.2l-10.7,6.6c-0.2,0.1-0.3,0.3-0.2,0.6l1.4,4.6c0,0.1,0.2,0.1,0.2,0l0.3-3.1
		c0-0.1,0.1-0.2,0.2-0.3l9.1-8C25.1,12.4,24.8,12.1,24.6,12.2z"/>
	<path id="XMLID_10_" class="st0" d="M33,1H3C1.9,1,1,1.9,1,3v30c0,1.1,0.9,2,2,2h30c1.1,0,2-0.9,2-2V3C35,1.9,34.1,1,33,1z
		 M28.7,10.2l-3.3,16c-0.2,0.7-1,1.1-1.7,0.6l-5-3.7l-2.6,2.6c-0.5,0.5-1.2,0.3-1.4-0.3l-1.9-5.9l-5-1.5c-0.7-0.2-0.7-1.1-0.1-1.3
		l19.5-7.6C28.1,8.8,28.8,9.4,28.7,10.2z"/>
</g>
</svg>
