<?xml version="1.0" encoding="utf-8"?>
<!-- Generator: Adobe Illustrator 19.0.0, SVG Export Plug-In . SVG Version: 6.00 Build 0)  -->
<svg version="1.1" id="Layer_1" xmlns="http://www.w3.org/2000/svg" xmlns:xlink="http://www.w3.org/1999/xlink" x="0px" y="0px"
	 viewBox="0 0 36 36" style="enable-background:new 0 0 36 36;" xml:space="preserve">
<style type="text/css">
	.st0{fill:#90939C;}
	.st1{fill:#1A9BC5;}
</style>
<path id="XMLID_3_" class="st0" d="M-20.2-20.8c0,1.1-0.9,2-2,2h-30c-1.1,0-2-0.9-2-2v-30c0-1.1,0.9-2,2-2h30c1.1,0,2,0.9,2,2V-20.8
	z"/>
<path id="XMLID_9_" class="st1" d="M33,1H3C1.9,1,1,1.9,1,3v30c0,1.1,0.9,2,2,2h30c1.1,0,2-0.9,2-2V3C35,1.9,34.1,1,33,1z
	 M26.8,13.5c0,0.2,0,0.4,0,0.6c0,6-4.6,12.9-12.9,12.9c-2.6,0-5-0.7-7-2C7.3,25,7.6,25,8,25c2.1,0,4.1-0.7,5.6-1.9
	c-2,0-3.7-1.4-4.2-3.2C9.7,20,10,20,10.3,20c0.4,0,0.8,0,1.2-0.1c-2.1-0.4-3.6-2.3-3.6-4.5c0,0,0,0,0,0c0.6,0.3,1.3,0.5,2.1,0.6
	c-1.2-0.8-2-2.2-2-3.8c0-0.8,0.2-1.6,0.6-2.3c2.2,2.8,5.6,4.6,9.4,4.8c-0.1-0.3-0.1-0.7-0.1-1c0-2.5,2-4.5,4.5-4.5
	c1.3,0,2.5,0.5,3.3,1.4c1-0.2,2-0.6,2.9-1.1c-0.3,1.1-1.1,1.9-2,2.5c0.9-0.1,1.8-0.4,2.6-0.7C28.5,12.1,27.7,12.8,26.8,13.5z"/>
</svg>
