<?xml version="1.0" encoding="utf-8"?>
<!-- Generator: Adobe Illustrator 19.0.0, SVG Export Plug-In . SVG Version: 6.00 Build 0)  -->
<svg version="1.1" id="Layer_1" xmlns="http://www.w3.org/2000/svg" xmlns:xlink="http://www.w3.org/1999/xlink" x="0px" y="0px"
	 viewBox="0 0 36 36" style="enable-background:new 0 0 36 36;" xml:space="preserve">
<style type="text/css">
	.st0{fill:#90939C;}
</style>
<path id="XMLID_3_" class="st0" d="M-19.7-20.7c0,1.1-0.9,2-2,2h-30c-1.1,0-2-0.9-2-2v-30c0-1.1,0.9-2,2-2h30c1.1,0,2,0.9,2,2V-20.7
	z"/>
<g id="XMLID_6_">
	<path id="XMLID_7_" class="st0" d="M21.4,17.9l-6.2-3.1c-0.2-0.1-0.4,0-0.4,0.2V21c0,0.2,0.2,0.3,0.4,0.2l6.2-2.9
		C21.6,18.2,21.6,18,21.4,17.9z"/>
	<path id="XMLID_10_" class="st0" d="M33,1H3C1.9,1,1,1.9,1,3v30c0,1.1,0.9,2,2,2h30c1.1,0,2-0.9,2-2V3C35,1.9,34.1,1,33,1z
		 M29.3,21.3c0,2.6-2.1,4.7-4.7,4.7H11.4c-2.6,0-4.7-2.1-4.7-4.7v-6.6c0-2.6,2.1-4.7,4.7-4.7h13.2c2.6,0,4.7,2.1,4.7,4.7V21.3z"/>
</g>
</svg>
