<?xml version="1.0" encoding="utf-8"?>
<!-- Generator: Adobe Illustrator 19.0.0, SVG Export Plug-In . SVG Version: 6.00 Build 0)  -->
<svg version="1.1" id="Layer_1" xmlns="http://www.w3.org/2000/svg" xmlns:xlink="http://www.w3.org/1999/xlink" x="0px" y="0px"
	 viewBox="0 0 30 26" style="enable-background:new 0 0 30 26;" xml:space="preserve">
<style type="text/css">
	.st0{fill:#F5CE42;}
	.st1{fill:#B8D6DF;}
</style>
<path id="XMLID_2_" class="st0" d="M11.9,22.2c6.1,0,11.1-5,11.1-11.1C23,5,18,0,11.9,0C5.7,0,0.8,5,0.8,11.1
	C0.8,17.2,5.7,22.2,11.9,22.2z"/>
<path id="XMLID_1_" class="st1" d="M20.1,26c1.8,0,3.5-0.5,5.1-1.4c1.5-0.9,2.8-2.3,3.6-3.9c0.8-1.6,1.1-3.4,1-5.2
	c-0.2-1.8-0.8-3.5-1.9-4.9c-1.1-1.4-2.5-2.5-4.2-3.2c-1.7-0.6-3.5-0.8-5.2-0.5c-1.8,0.3-3.4,1.1-4.7,2.3c-1.3,1.2-2.3,2.8-2.8,4.5
	c-0.9-0.6-1.9-1-2.9-1.1c-1-0.1-2.1,0-3.1,0.3c-1,0.3-1.9,0.9-2.6,1.7c-0.7,0.8-1.3,1.7-1.6,2.7c-0.3,1-0.4,2.1-0.2,3.1
	s0.6,2,1.2,2.9s1.4,1.5,2.4,2C4.9,25.8,6,26,7,26H20.1z"/>
</svg>
