<?xml version="1.0" encoding="utf-8"?>
<!-- Generator: Adobe Illustrator 19.0.0, SVG Export Plug-In . SVG Version: 6.00 Build 0)  -->
<svg version="1.1" id="Layer_1" xmlns="http://www.w3.org/2000/svg" xmlns:xlink="http://www.w3.org/1999/xlink" x="0px" y="0px"
	 viewBox="0 0 28 26" style="enable-background:new 0 0 28 26;" xml:space="preserve">
<style type="text/css">
	.st0{fill:#B8D6DF;}
	.st1{fill:none;stroke:#83B3CB;stroke-width:1.4111;stroke-linecap:round;stroke-linejoin:round;}
	.st2{fill:none;stroke:#9FA6B7;stroke-width:1.4111;stroke-linecap:round;stroke-linejoin:round;}
	.st3{fill:none;stroke:#615C9A;stroke-width:1.4111;stroke-linecap:round;stroke-linejoin:round;}
</style>
<path id="XMLID_5_" class="st0" d="M18.7,17.8c1.7,0,3.3-0.5,4.7-1.3c1.4-0.9,2.5-2.1,3.3-3.6c0.7-1.5,1-3.1,0.9-4.8
	c-0.2-1.6-0.8-3.2-1.8-4.5c-1-1.3-2.3-2.3-3.9-2.9c-1.5-0.6-3.2-0.8-4.8-0.5c-1.6,0.3-3.1,1.1-4.4,2.2s-2.1,2.5-2.6,4.1
	c-0.8-0.5-1.7-0.9-2.7-1c-1-0.1-1.9,0-2.9,0.3C3.7,6.1,2.9,6.6,2.2,7.3S1,8.8,0.7,9.8s-0.4,1.9-0.2,2.9s0.5,1.9,1.1,2.6
	c0.6,0.8,1.3,1.4,2.2,1.9c0.9,0.4,1.8,0.7,2.8,0.7H18.7z"/>
<path id="XMLID_4_" class="st1" d="M20.1,21.2v-5.1"/>
<path id="XMLID_3_" class="st2" d="M12,25.3v-2.9"/>
<path id="XMLID_2_" class="st3" d="M8.8,18.9v-2.8"/>
<path id="XMLID_1_" class="st2" d="M15.1,17.8v-1.7"/>
</svg>
