<?xml version="1.0" encoding="utf-8"?>
<!-- Generator: Adobe Illustrator 19.0.0, SVG Export Plug-In . SVG Version: 6.00 Build 0)  -->
<svg version="1.1" id="Layer_1" xmlns="http://www.w3.org/2000/svg" xmlns:xlink="http://www.w3.org/1999/xlink" x="0px" y="0px"
	 viewBox="0 0 34 26" style="enable-background:new 0 0 34 26;" xml:space="preserve">
<style type="text/css">
	.st0{fill:#B8D6DF;}
	.st1{fill:#83B3CB;}
</style>
<path id="XMLID_2_" class="st0" d="M22.8,21.5c2,0,4-0.6,5.8-1.6c1.7-1.1,3.1-2.6,4-4.4c0.9-1.8,1.3-3.8,1.1-5.8
	c-0.2-2-0.9-3.9-2.2-5.5c-1.2-1.6-2.9-2.8-4.8-3.6c-1.9-0.7-4-0.9-6-0.5c-2,0.4-3.9,1.3-5.4,2.6c-1.5,1.3-2.6,3.1-3.2,5
	c-1-0.7-2.1-1.1-3.3-1.3c-1.2-0.2-2.4,0-3.5,0.3c-1.1,0.4-2.2,1-3,1.9c-0.8,0.8-1.5,1.9-1.8,3c-0.4,1.1-0.4,2.3-0.2,3.5
	c0.2,1.2,0.7,2.3,1.4,3.2c0.7,0.9,1.6,1.7,2.7,2.3c1.1,0.5,2.3,0.8,3.4,0.8H22.8z"/>
<path id="XMLID_1_" class="st1" d="M19.3,21.1c-0.6-0.9-1.3-1.8-2.1-2.6c-0.8,0.8-1.4,1.7-2.1,2.6c-0.5,0.6-0.7,1.3-0.8,2.1
	c0,0.8,0.3,1.5,0.9,2c0.5,0.5,1.3,0.8,2.1,0.8c0.8,0,1.5-0.3,2.1-0.8c0.5-0.5,0.9-1.3,0.9-2C20.1,22.4,19.8,21.7,19.3,21.1z"/>
</svg>
