<?xml version="1.0" encoding="utf-8"?>
<!-- Generator: Adobe Illustrator 19.0.0, SVG Export Plug-In . SVG Version: 6.00 Build 0)  -->
<svg version="1.1" id="Layer_1" xmlns="http://www.w3.org/2000/svg" xmlns:xlink="http://www.w3.org/1999/xlink" x="0px" y="0px"
	 viewBox="0 0 28 26" style="enable-background:new 0 0 28 26;" xml:space="preserve">
<style type="text/css">
	.st0{fill:#B8D6DF;}
	.st1{fill:#D86837;}
</style>
<path id="XMLID_3_" class="st0" d="M18.8,18.3c1.7,0,3.4-0.5,4.8-1.4c1.4-0.9,2.6-2.2,3.4-3.7c0.8-1.5,1.1-3.2,0.9-4.9
	c-0.2-1.7-0.8-3.3-1.8-4.7c-1-1.4-2.4-2.4-4-3c-1.6-0.6-3.3-0.8-5-0.5c-1.7,0.3-3.2,1.1-4.5,2.2C11.4,3.5,10.5,5,10,6.6
	C9.2,6.1,8.3,5.7,7.3,5.6c-1-0.1-2,0-2.9,0.3C3.4,6.2,2.5,6.7,1.8,7.5C1.1,8.2,0.6,9,0.3,10C0,11,0,12,0.1,13s0.6,1.9,1.2,2.7
	s1.4,1.5,2.3,1.9c0.9,0.5,1.9,0.7,2.9,0.7H18.8z"/>
<path id="XMLID_2_" class="st1" d="M15.8,12.4L9,20l4.1,0L11.6,26l7.3-7.7h-4.5L15.8,12.4z"/>
</svg>
