<svg width="39" height="27" viewBox="0 0 39 27" fill="none" xmlns="http://www.w3.org/2000/svg">
<path d="M26.1372 26.0931C28.4798 26.0949 30.7765 25.4434 32.7692 24.2116C34.7618 22.9799 36.3713 21.2168 37.4169 19.1205C38.4625 17.0241 38.9027 14.6777 38.6879 12.345C38.4732 10.0123 37.6121 7.78568 36.2013 5.91549C34.7906 4.0453 32.8862 2.60566 30.7022 1.7584C28.5182 0.911137 26.1411 0.689832 23.8382 1.11936C21.5354 1.54889 19.3979 2.61223 17.6662 4.18985C15.9345 5.76748 14.6771 7.79684 14.0354 10.0498C12.8995 9.27062 11.5963 8.7692 10.231 8.58601C8.86573 8.40282 7.4765 8.54298 6.17531 8.9952C4.87413 9.44741 3.6974 10.199 2.73999 11.1895C1.78257 12.1799 1.07127 13.3814 0.663404 14.6972C0.255542 16.0129 0.162539 17.4061 0.39189 18.7644C0.621241 20.1227 1.16653 21.4081 1.9838 22.517C2.80107 23.6259 3.86745 24.5273 5.09698 25.1484C6.32651 25.7696 7.68479 26.0932 9.06232 26.0931H26.1372Z" fill="#B9D8E8"/>
</svg>
