<?xml version="1.0" encoding="utf-8"?>
<!-- Generator: Adobe Illustrator 19.0.0, SVG Export Plug-In . SVG Version: 6.00 Build 0)  -->
<svg version="1.1" id="Layer_1" xmlns="http://www.w3.org/2000/svg" xmlns:xlink="http://www.w3.org/1999/xlink" x="0px" y="0px"
	 viewBox="0 0 37 26" style="enable-background:new 0 0 37 26;" xml:space="preserve">
<style type="text/css">
	.st0{fill:#B8D6DF;}
	.st1{fill:none;stroke:#83B3CB;stroke-width:1.4111;stroke-linecap:round;stroke-linejoin:round;}
	.st2{fill:none;stroke:#9FA6B7;stroke-width:1.4111;stroke-linecap:round;stroke-linejoin:round;}
	.st3{fill:none;stroke:#615C9A;stroke-width:1.4111;stroke-linecap:round;stroke-linejoin:round;}
</style>
<path id="XMLID_6_" class="st0" d="M20.5,20c1.8,0,3.6-0.5,5.2-1.5c1.6-1,2.8-2.4,3.7-4c0.8-1.6,1.2-3.5,1-5.3
	c-0.2-1.8-0.8-3.6-2-5.1c-1.1-1.5-2.6-2.6-4.3-3.3c-1.7-0.7-3.6-0.8-5.4-0.5c-1.8,0.3-3.5,1.2-4.9,2.4C12.5,4,11.5,5.6,11,7.4
	c-0.9-0.6-1.9-1-3-1.2c-1.1-0.1-2.2,0-3.2,0.3c-1,0.4-1.9,0.9-2.7,1.7C1.3,9.1,0.8,10,0.5,11c-0.3,1-0.4,2.1-0.2,3.2
	c0.2,1.1,0.6,2.1,1.3,2.9c0.6,0.9,1.5,1.6,2.4,2.1c1,0.5,2,0.7,3.1,0.7H20.5z"/>
<path id="XMLID_5_" class="st1" d="M28.9,14.2H12"/>
<path id="XMLID_4_" class="st2" d="M36.3,19.8h-9.6"/>
<path id="XMLID_3_" class="st3" d="M28.9,25.2H12"/>
<path id="XMLID_2_" class="st2" d="M20.5,19.7h-5.5"/>
</svg>
