<svg width="35" height="35" viewBox="0 0 35 35" fill="none" xmlns="http://www.w3.org/2000/svg">
<path d="M30.4632 21.3333C27.9154 21.3354 25.3996 20.7668 23.1004 19.669C20.8013 18.5713 18.7773 16.9725 17.1771 14.9899C15.5769 13.0074 14.4413 10.6915 13.8535 8.21246C13.2658 5.73343 13.2409 3.15422 13.7807 0.664307C10.8086 1.36428 8.07885 2.84889 5.87608 4.96329C3.6733 7.0777 2.07822 9.74443 1.25721 12.6853C0.436205 15.6262 0.41935 18.7335 1.20841 21.6832C1.99746 24.6328 3.56352 27.3167 5.74323 29.4549C7.92294 31.593 10.6364 33.1072 13.6007 33.8393C16.565 34.5715 19.6714 34.4949 22.596 33.6175C25.5205 32.74 28.1561 31.094 30.2277 28.8509C32.2993 26.6079 33.7312 23.85 34.3738 20.8651C33.0927 21.1712 31.7804 21.3283 30.4632 21.3333Z" fill="#7269AF"/>
</svg>
