<?xml version="1.0" encoding="utf-8"?>
<!-- Generator: Adobe Illustrator 19.0.0, SVG Export Plug-In . SVG Version: 6.00 Build 0)  -->
<svg version="1.1" id="Layer_1" xmlns="http://www.w3.org/2000/svg" xmlns:xlink="http://www.w3.org/1999/xlink" x="0px" y="0px"
	 viewBox="0 0 24 26" style="enable-background:new 0 0 24 26;" xml:space="preserve">
<style type="text/css">
	.st0{fill:#7269AD;}
	.st1{fill:#B8D6DF;}
	.st2{fill:none;stroke:#83B3CB;stroke-width:1.4111;stroke-linecap:round;stroke-linejoin:round;}
	.st3{fill:none;stroke:#9FA6B7;stroke-width:1.4111;stroke-linecap:round;stroke-linejoin:round;}
	.st4{fill:none;stroke:#615C9A;stroke-width:1.4111;stroke-linecap:round;stroke-linejoin:round;}
</style>
<path id="XMLID_7_" class="st0" d="M8.4,1.5c0,1-0.2,2-0.7,2.8C7.3,5.2,6.7,6,5.9,6.6C5.2,7.3,4.2,7.7,3.3,7.9c-1,0.2-2,0.2-3,0
	C0.6,9.1,1.2,10.1,2,11c0.8,0.9,1.9,1.5,3,1.8c1.2,0.3,2.4,0.3,3.5,0c1.2-0.3,2.2-0.9,3.1-1.7c0.8-0.8,1.4-1.9,1.7-3
	c0.3-1.1,0.3-2.3-0.1-3.5c-0.3-1.1-1-2.1-1.9-2.9c-0.9-0.8-2-1.4-3.1-1.6C8.4,0.5,8.4,1,8.4,1.5z"/>
<path id="XMLID_6_" class="st1" d="M16.5,19.5c1.3,0,2.7-0.4,3.8-1.1c1.1-0.7,2.1-1.7,2.7-2.9c0.6-1.2,0.8-2.5,0.7-3.8
	c-0.1-1.3-0.6-2.6-1.4-3.6c-0.8-1.1-1.9-1.9-3.1-2.3c-1.2-0.5-2.6-0.6-3.9-0.4c-1.3,0.2-2.5,0.8-3.5,1.7c-1,0.9-1.7,2-2.1,3.3
	C8.9,10,8.2,9.8,7.4,9.6c-0.8-0.1-1.6,0-2.3,0.2c-0.7,0.3-1.4,0.7-2,1.2c-0.5,0.6-1,1.2-1.2,2c-0.2,0.7-0.3,1.5-0.2,2.3
	c0.1,0.8,0.4,1.5,0.9,2.1s1.1,1.1,1.8,1.5c0.7,0.3,1.5,0.5,2.3,0.5H16.5z"/>
<path id="XMLID_5_" class="st2" d="M16.8,22.1V18"/>
<path id="XMLID_4_" class="st3" d="M10.3,25.3V23"/>
<path id="XMLID_3_" class="st4" d="M7.7,20.2V18"/>
<path id="XMLID_2_" class="st3" d="M12.8,19.3V18"/>
</svg>
