<?xml version="1.0" encoding="utf-8"?>
<!-- Generator: Adobe Illustrator 19.0.0, SVG Export Plug-In . SVG Version: 6.00 Build 0)  -->
<svg version="1.1" id="Layer_1" xmlns="http://www.w3.org/2000/svg" xmlns:xlink="http://www.w3.org/1999/xlink" x="0px" y="0px"
	 viewBox="0 0 28 26" style="enable-background:new 0 0 28 26;" xml:space="preserve">
<style type="text/css">
	.st0{fill:#B8D6DF;}
	.st1{fill:#615C9A;}
	.st2{fill:#187B9D;}
	.st3{fill:#9FA6B7;}
	.st4{fill:#83B3CB;}
</style>
<path id="XMLID_5_" class="st0" d="M18.8,18.4c1.7,0,3.4-0.5,4.8-1.4c1.5-0.9,2.6-2.2,3.4-3.7c0.8-1.5,1.1-3.2,0.9-4.9
	c-0.2-1.7-0.8-3.3-1.8-4.7c-1-1.4-2.4-2.4-4-3c-1.6-0.6-3.3-0.8-5-0.5c-1.7,0.3-3.2,1.1-4.5,2.2S10.5,5,10,6.7
	C9.2,6.1,8.2,5.7,7.2,5.6c-1-0.1-2,0-3,0.3C3.4,6.2,2.5,6.8,1.8,7.5c-0.7,0.7-1.2,1.6-1.5,2.6c-0.3,1-0.4,2-0.2,3
	c0.2,1,0.6,1.9,1.2,2.7c0.6,0.8,1.4,1.5,2.3,1.9c0.9,0.5,1.9,0.7,2.9,0.7H18.8z"/>
<path id="XMLID_4_" class="st1" d="M8.5,19.5c0.9,0,1.6-0.7,1.6-1.6c0-0.9-0.7-1.6-1.6-1.6S6.9,17,6.9,17.9
	C6.9,18.8,7.6,19.5,8.5,19.5z"/>
<path id="XMLID_3_" class="st2" d="M11.8,26c0.9,0,1.6-0.7,1.6-1.6c0-0.9-0.7-1.6-1.6-1.6c-0.9,0-1.6,0.7-1.6,1.6
	C10.2,25.3,10.9,26,11.8,26z"/>
<path id="XMLID_2_" class="st3" d="M15.1,19.1c0.9,0,1.6-0.7,1.6-1.6c0-0.9-0.7-1.6-1.6-1.6c-0.9,0-1.6,0.7-1.6,1.6
	C13.5,18.4,14.2,19.1,15.1,19.1z"/>
<path id="XMLID_1_" class="st4" d="M20.3,22.6c0.9,0,1.6-0.7,1.6-1.6c0-0.9-0.7-1.6-1.6-1.6c-0.9,0-1.6,0.7-1.6,1.6
	C18.7,21.9,19.4,22.6,20.3,22.6z"/>
</svg>
