<?xml version="1.0" encoding="utf-8"?>
<!-- Generator: Adobe Illustrator 19.0.0, SVG Export Plug-In . SVG Version: 6.00 Build 0)  -->
<svg version="1.1" id="Layer_1" xmlns="http://www.w3.org/2000/svg" xmlns:xlink="http://www.w3.org/1999/xlink" x="0px" y="0px"
	 viewBox="0 0 29 26" style="enable-background:new 0 0 29 26;" xml:space="preserve">
<style type="text/css">
	.st0{fill:#B8D6DF;}
	.st1{fill:none;stroke:#187B9D;stroke-width:0.7055;stroke-linecap:round;stroke-linejoin:round;}
</style>
<path id="XMLID_8_" class="st0" d="M19.5,19c1.8,0,3.5-0.5,5-1.4c1.5-0.9,2.7-2.3,3.5-3.8c0.8-1.6,1.1-3.3,1-5.1
	c-0.2-1.8-0.8-3.4-1.9-4.8c-1.1-1.4-2.5-2.5-4.1-3.1c-1.6-0.6-3.4-0.8-5.2-0.5c-1.7,0.3-3.3,1.1-4.7,2.3c-1.3,1.2-2.3,2.7-2.7,4.4
	c-0.9-0.6-1.8-1-2.9-1.1c-1-0.1-2.1,0-3.1,0.3C3.5,6.4,2.6,7,1.9,7.8c-0.7,0.7-1.3,1.7-1.6,2.6c-0.3,1-0.4,2-0.2,3.1
	c0.2,1,0.6,2,1.2,2.8c0.6,0.8,1.4,1.5,2.3,2c0.9,0.5,2,0.7,3,0.7H19.5z"/>
<path id="XMLID_7_" class="st1" d="M20.1,12.4v13.2"/>
<path id="XMLID_6_" class="st1" d="M22.3,13.9l-2.2,2.2L18,13.9"/>
<path id="XMLID_5_" class="st1" d="M17.9,23.4l2.2-2.2l2.2,2.2"/>
<path id="XMLID_4_" class="st1" d="M13.5,19h13.2"/>
<path id="XMLID_3_" class="st1" d="M15,16.9l2.2,2.2L15,21.2"/>
<path id="XMLID_2_" class="st1" d="M25.3,21.2L23.1,19l2.2-2.2"/>
</svg>
