<?xml version="1.0" encoding="utf-8"?>
<!-- Generator: Adobe Illustrator 19.0.0, SVG Export Plug-In . SVG Version: 6.00 Build 0)  -->
<svg version="1.1" id="Layer_1" xmlns="http://www.w3.org/2000/svg" xmlns:xlink="http://www.w3.org/1999/xlink" x="0px" y="0px"
	 viewBox="0 0 34 26" style="enable-background:new 0 0 34 26;" xml:space="preserve">
<style type="text/css">
	.st0{fill:none;stroke:#83B3CB;stroke-width:1.4111;stroke-linecap:round;stroke-linejoin:round;}
	.st1{fill:none;stroke:#9FA6B7;stroke-width:1.4111;stroke-linecap:round;stroke-linejoin:round;}
	.st2{fill:none;stroke:#615C9A;stroke-width:1.4111;stroke-linecap:round;stroke-linejoin:round;}
</style>
<path id="XMLID_5_" class="st0" d="M20.2,0.8c0.4,0,0.8,0.1,1.2,0.2c0.4,0.1,0.7,0.4,1,0.6c0.3,0.3,0.5,0.6,0.7,1
	c0.2,0.4,0.2,0.8,0.2,1.2S23.3,4.6,23.1,5c-0.2,0.4-0.4,0.7-0.7,1c-0.3,0.3-0.6,0.5-1,0.6c-0.4,0.1-0.8,0.2-1.2,0.2H1.1"/>
<path id="XMLID_4_" class="st1" d="M28.5,4.2c1.2,0,2.4,0.5,3.3,1.3c0.9,0.8,1.4,2,1.4,3.2c0,1.2-0.5,2.3-1.4,3.2
	c-0.9,0.8-2,1.3-3.3,1.3H17.6"/>
<path id="XMLID_3_" class="st2" d="M20.2,25.2c0.4,0,0.8-0.1,1.2-0.2c0.4-0.1,0.7-0.4,1-0.6c0.3-0.3,0.5-0.6,0.7-1
	c0.2-0.4,0.2-0.8,0.2-1.2c0-0.4-0.1-0.8-0.2-1.2c-0.2-0.4-0.4-0.7-0.7-1c-0.3-0.3-0.6-0.5-1-0.6c-0.4-0.1-0.8-0.2-1.2-0.2H1.1"/>
<path id="XMLID_2_" class="st1" d="M10.7,13.1H4.4"/>
</svg>
